<mxfile host="app.diagrams.net" modified="2024-01-14T15:01:30.193Z" agent="Mozilla/5.0 (Windows NT 10.0; Win64; x64) AppleWebKit/537.36 (KHTML, like Gecko) Chrome/120.0.0.0 Safari/537.36" version="22.1.18" etag="xmd6FCpEAdwVIu9CfVbU" type="github">
  <diagram name="페이지-1" id="u-TAjCI1U1XU3SHndfHG">
    <mxGraphModel>
      <root>
        <mxCell id="0" />
        <mxCell id="1" parent="0" />
      </root>
    </mxGraphModel>
  </diagram>
</mxfile>
